name C:\Users\u0101727\Documents\MyRepositories\upper-imu-dc\Results\main_mocap_tracking\Case_8\FLX01_angularVelocities.mot
datacolumns 4
datarows 58
range 5.01000000 5.58000000
endheader 
time	radius_imu_x	radius_imu_y	radius_imu_z	
          5.01000000	          1.32689990	         -0.10086161	          0.49325421	
          5.02000000	          1.29660113	          0.01726152	          0.49989805	
          5.03000000	          1.26272454	          0.16897631	          0.50799201	
          5.04000000	          1.22571396	          0.33985248	          0.51826369	
          5.05000000	          1.18763143	          0.49996185	          0.53174946	
          5.06000000	          1.15142880	          0.61556985	          0.54926524	
          5.07000000	          1.11984188	          0.66278127	          0.57099426	
          5.08000000	          1.09446907	          0.63625267	          0.59642207	
          5.09000000	          1.07544687	          0.54913604	          0.62462819	
          5.10000000	          1.06175328	          0.42560989	          0.65474426	
          5.11000000	          1.05181450	          0.29135967	          0.68631147	
          5.12000000	          1.04399254	          0.16759020	          0.71937350	
          5.13000000	          1.03676241	          0.07047263	          0.75432608	
          5.14000000	          1.02878697	          0.01253024	          0.79173623	
          5.15000000	          1.01924422	          0.00075195	          0.83234916	
          5.16000000	          1.00840937	          0.03096618	          0.87724762	
          5.17000000	          0.99799944	          0.08420257	          0.92789189	
          5.18000000	          0.99075625	          0.13111184	          0.98581576	
          5.19000000	          0.98930193	          0.14416813	          1.05204539	
          5.20000000	          0.99485920	          0.11084039	          1.12657482	
          5.21000000	          1.00646122	          0.04091806	          1.20815158	
          5.22000000	          1.02088734	         -0.03457178	          1.29446767	
          5.23000000	          1.03325367	         -0.07203531	          1.38270134	
          5.24000000	          1.03811405	         -0.02906084	          1.47020653	
          5.25000000	          1.03081464	          0.12076419	          1.55513065	
          5.26000000	          1.00865728	          0.37773770	          1.63669741	
          5.27000000	          0.97142308	          0.71532679	          1.71498583	
          5.28000000	          0.92113401	          1.08870851	          1.79032104	
          5.29000000	          0.86131187	          1.44808444	          1.86258690	
          5.30000000	          0.79612883	          1.75138106	          1.93075992	
          5.31000000	          0.72976675	          1.97226687	          1.99281999	
          5.32000000	          0.66610315	          2.10192579	          2.04600491	
          5.33000000	          0.60862034	          2.14582332	          2.08722661	
          5.34000000	          0.56034720	          2.11816663	          2.11344141	
          5.35000000	          0.52371337	          2.03660554	          2.12185329	
          5.36000000	          0.50033766	          1.91859349	          2.10995364	
          5.37000000	          0.49087659	          1.77945865	          2.07549644	
          5.38000000	          0.49503650	          1.63151935	          2.01652436	
          5.39000000	          0.51175551	          1.48365443	          1.93151925	
          5.40000000	          0.53950817	          1.34082769	          1.81965756	
          5.41000000	          0.57670095	          1.20328695	          1.68110722	
          5.42000000	          0.62207808	          1.06596159	          1.51734586	
          5.43000000	          0.67501801	          0.91898744	          1.33139498	
          5.44000000	          0.73553402	          0.75007516	          1.12778269	
          5.45000000	          0.80460949	          0.54746063	          0.91204960	
          5.46000000	          0.88084444	          0.30273992	          0.68881054	
          5.47000000	          0.96721367	          0.01649651	          0.46429071	
          5.48000000	          1.06979292	         -0.29943764	          0.24100722	
          5.49000000	          1.17936777	         -0.64535165	          0.02523188	
          5.50000000	          1.28460338	         -1.01509369	         -0.17417613	
          5.51000000	          1.38769102	         -1.38389857	         -0.36134773	
          5.52000000	          1.48993257	         -1.73552052	         -0.54055950	
          5.53000000	          1.58832425	         -2.05982312	         -0.70815999	
          5.54000000	          1.67735330	         -2.34996591	         -0.86051671	
          5.55000000	          1.75211306	         -2.60255803	         -0.99489602	
          5.56000000	          1.80944432	         -2.81529691	         -1.10992592	
          5.57000000	          1.84803704	         -2.98674014	         -1.20551960	
          5.58000000	          1.86822782	         -3.11655084	         -1.28261853	
